<?xml version="1.0" encoding="UTF-8"?>
<svg xmlns="http://www.w3.org/2000/svg" xmlns:xlink="http://www.w3.org/1999/xlink" width="337.39pt" height="38.6pt" viewBox="0 0 337.39 38.6" version="1.1">
<defs>
<clipPath id="clip1">
  <path d="M 0 0 L 12 0 L 12 38.601563 L 0 38.601563 Z M 0 0 "/>
</clipPath>
<clipPath id="clip2">
  <path d="M 33 0 L 46 0 L 46 38.601563 L 33 38.601563 Z M 33 0 "/>
</clipPath>
<clipPath id="clip3">
  <path d="M 67 0 L 80 0 L 80 38.601563 L 67 38.601563 Z M 67 0 "/>
</clipPath>
<clipPath id="clip4">
  <path d="M 101 0 L 114 0 L 114 38.601563 L 101 38.601563 Z M 101 0 "/>
</clipPath>
<clipPath id="clip5">
  <path d="M 135 0 L 139 0 L 139 38.601563 L 135 38.601563 Z M 135 0 "/>
</clipPath>
<clipPath id="clip6">
  <path d="M 183 0 L 196 0 L 196 38.601563 L 183 38.601563 Z M 183 0 "/>
</clipPath>
<clipPath id="clip7">
  <path d="M 217 0 L 230 0 L 230 38.601563 L 217 38.601563 Z M 217 0 "/>
</clipPath>
<clipPath id="clip8">
  <path d="M 251 0 L 264 0 L 264 38.601563 L 251 38.601563 Z M 251 0 "/>
</clipPath>
<clipPath id="clip9">
  <path d="M 283 0 L 306 0 L 306 38.601563 L 283 38.601563 Z M 283 0 "/>
</clipPath>
<clipPath id="clip10">
  <path d="M 324 0 L 337.390625 0 L 337.390625 38.601563 L 324 38.601563 Z M 324 0 "/>
</clipPath>
</defs>
<g id="surface1">
<g clip-path="url(#clip1)" clip-rule="nonzero">
<path style=" stroke:none;fill-rule:nonzero;fill:rgb(13.299561%,11.799622%,12.199402%);fill-opacity:1;" d="M 3.46875 35.339844 L 5.570313 35.339844 C 7.535156 35.339844 8.515625 34.484375 8.515625 32.761719 L 8.515625 22.351563 C 8.515625 20.808594 7.605469 20.035156 5.78125 20.035156 L 3.46875 20.035156 Z M 3.46875 17.089844 L 5.78125 17.089844 C 7.5 17.089844 8.359375 16.179688 8.359375 14.355469 L 8.359375 5.839844 C 8.359375 4.121094 7.378906 3.261719 5.414063 3.261719 L 3.46875 3.261719 Z M 0 38.285156 L 0 0.316406 L 6.46875 0.316406 C 8.324219 0.316406 9.640625 0.5625 10.410156 1.054688 C 11.355469 1.71875 11.828125 2.929688 11.828125 4.683594 L 11.828125 14.304688 C 11.828125 15.742188 11.542969 16.769531 10.960938 17.382813 C 10.382813 17.992188 9.410156 18.335938 8.042969 18.402344 L 8.042969 18.511719 C 10.671875 18.617188 11.988281 19.792969 11.988281 22.035156 L 11.988281 33.917969 C 11.988281 35.675781 11.496094 36.863281 10.515625 37.496094 C 9.742188 38.023438 8.394531 38.285156 6.46875 38.285156 "/>
</g>
<g clip-path="url(#clip2)" clip-rule="nonzero">
<path style=" stroke:none;fill-rule:nonzero;fill:rgb(13.299561%,11.799622%,12.199402%);fill-opacity:1;" d="M 37.230469 6.519531 L 37.230469 32.078125 C 37.230469 34.464844 38.105469 35.65625 39.859375 35.65625 C 41.609375 35.65625 42.488281 34.464844 42.488281 32.078125 L 42.488281 6.519531 C 42.488281 4.136719 41.609375 2.945313 39.859375 2.945313 C 38.105469 2.945313 37.230469 4.136719 37.230469 6.519531 M 33.757813 32.183594 L 33.757813 6.417969 C 33.757813 2.140625 35.792969 0 39.859375 0 C 43.921875 0 45.960938 2.140625 45.960938 6.417969 L 45.960938 32.183594 C 45.960938 36.460938 43.921875 38.601563 39.859375 38.601563 C 35.792969 38.601563 33.757813 36.460938 33.757813 32.183594 "/>
</g>
<g clip-path="url(#clip3)" clip-rule="nonzero">
<path style=" stroke:none;fill-rule:nonzero;fill:rgb(13.299561%,11.799622%,12.199402%);fill-opacity:1;" d="M 71.148438 35.339844 L 73.253906 35.339844 C 75.214844 35.339844 76.199219 34.484375 76.199219 32.761719 L 76.199219 22.351563 C 76.199219 20.808594 75.285156 20.035156 73.464844 20.035156 L 71.148438 20.035156 Z M 71.148438 17.089844 L 73.464844 17.089844 C 75.179688 17.089844 76.039063 16.179688 76.039063 14.355469 L 76.039063 5.839844 C 76.039063 4.121094 75.058594 3.261719 73.09375 3.261719 L 71.148438 3.261719 Z M 67.675781 38.285156 L 67.675781 0.316406 L 74.144531 0.316406 C 76.003906 0.316406 77.320313 0.5625 78.089844 1.054688 C 79.035156 1.71875 79.507813 2.929688 79.507813 4.683594 L 79.507813 14.304688 C 79.507813 15.742188 79.21875 16.769531 78.644531 17.382813 C 78.0625 17.992188 77.089844 18.335938 75.726563 18.402344 L 75.726563 18.511719 C 78.351563 18.617188 79.664063 19.792969 79.664063 22.035156 L 79.664063 33.917969 C 79.664063 35.675781 79.175781 36.863281 78.195313 37.496094 C 77.421875 38.023438 76.074219 38.285156 74.144531 38.285156 "/>
</g>
<g clip-path="url(#clip4)" clip-rule="nonzero">
<path style=" stroke:none;fill-rule:nonzero;fill:rgb(13.299561%,11.799622%,12.199402%);fill-opacity:1;" d="M 104.960938 35.339844 L 107.066406 35.339844 C 109.027344 35.339844 110.011719 34.484375 110.011719 32.761719 L 110.011719 22.351563 C 110.011719 20.808594 109.097656 20.035156 107.273438 20.035156 L 104.960938 20.035156 Z M 104.960938 17.089844 L 107.273438 17.089844 C 108.992188 17.089844 109.851563 16.179688 109.851563 14.355469 L 109.851563 5.839844 C 109.851563 4.121094 108.867188 3.261719 106.90625 3.261719 L 104.960938 3.261719 Z M 101.488281 38.285156 L 101.488281 0.316406 L 107.960938 0.316406 C 109.816406 0.316406 111.128906 0.5625 111.902344 1.054688 C 112.847656 1.71875 113.320313 2.929688 113.320313 4.683594 L 113.320313 14.304688 C 113.320313 15.742188 113.03125 16.769531 112.453125 17.382813 C 111.878906 17.992188 110.902344 18.335938 109.535156 18.402344 L 109.535156 18.511719 C 112.164063 18.617188 113.480469 19.792969 113.480469 22.035156 L 113.480469 33.917969 C 113.480469 35.675781 112.988281 36.863281 112.007813 37.496094 C 111.234375 38.023438 109.886719 38.285156 107.960938 38.285156 "/>
</g>
<g clip-path="url(#clip5)" clip-rule="nonzero">
<path style=" stroke:none;fill-rule:nonzero;fill:rgb(13.299561%,11.799622%,12.199402%);fill-opacity:1;" d="M 135.25 38.285156 L 138.722656 38.285156 L 138.722656 0.316406 L 135.25 0.316406 Z M 135.25 38.285156 "/>
</g>
<g clip-path="url(#clip6)" clip-rule="nonzero">
<path style=" stroke:none;fill-rule:nonzero;fill:rgb(13.299561%,11.799622%,12.199402%);fill-opacity:1;" d="M 187.46875 35.339844 L 189.570313 35.339844 C 191.535156 35.339844 192.519531 34.484375 192.519531 32.761719 L 192.519531 22.351563 C 192.519531 20.808594 191.605469 20.035156 189.78125 20.035156 L 187.46875 20.035156 Z M 187.46875 17.089844 L 189.78125 17.089844 C 191.5 17.089844 192.359375 16.179688 192.359375 14.355469 L 192.359375 5.839844 C 192.359375 4.121094 191.378906 3.261719 189.414063 3.261719 L 187.46875 3.261719 Z M 183.996094 38.285156 L 183.996094 0.316406 L 190.46875 0.316406 C 192.324219 0.316406 193.640625 0.5625 194.410156 1.054688 C 195.359375 1.71875 195.828125 2.929688 195.828125 4.683594 L 195.828125 14.304688 C 195.828125 15.742188 195.539063 16.769531 194.960938 17.382813 C 194.386719 17.992188 193.410156 18.335938 192.042969 18.402344 L 192.042969 18.511719 C 194.671875 18.617188 195.988281 19.792969 195.988281 22.035156 L 195.988281 33.917969 C 195.988281 35.675781 195.496094 36.863281 194.515625 37.496094 C 193.742188 38.023438 192.390625 38.285156 190.46875 38.285156 "/>
</g>
<g clip-path="url(#clip7)" clip-rule="nonzero">
<path style=" stroke:none;fill-rule:nonzero;fill:rgb(13.299561%,11.799622%,12.199402%);fill-opacity:1;" d="M 221.28125 17.089844 L 223.597656 17.089844 C 225.3125 17.089844 226.171875 16.179688 226.171875 14.355469 L 226.171875 5.839844 C 226.171875 4.121094 225.191406 3.261719 223.226563 3.261719 L 221.28125 3.261719 Z M 226.332031 38.285156 L 226.332031 22.351563 C 226.332031 20.808594 225.417969 20.035156 223.597656 20.035156 L 221.28125 20.035156 L 221.28125 38.285156 L 217.808594 38.285156 L 217.808594 0.316406 L 224.277344 0.316406 C 226.136719 0.316406 227.449219 0.5625 228.21875 1.054688 C 229.171875 1.71875 229.640625 2.929688 229.640625 4.683594 L 229.640625 14.304688 C 229.640625 15.742188 229.351563 16.769531 228.773438 17.382813 C 228.195313 17.992188 227.222656 18.335938 225.855469 18.402344 L 225.855469 18.511719 C 228.488281 18.6875 229.800781 19.863281 229.800781 22.035156 L 229.800781 38.285156 "/>
</g>
<g clip-path="url(#clip8)" clip-rule="nonzero">
<path style=" stroke:none;fill-rule:nonzero;fill:rgb(13.299561%,11.799622%,12.199402%);fill-opacity:1;" d="M 255.042969 6.519531 L 255.042969 32.078125 C 255.042969 34.464844 255.917969 35.65625 257.671875 35.65625 C 259.425781 35.65625 260.300781 34.464844 260.300781 32.078125 L 260.300781 6.519531 C 260.300781 4.136719 259.425781 2.945313 257.671875 2.945313 C 255.917969 2.945313 255.042969 4.136719 255.042969 6.519531 M 251.570313 32.183594 L 251.570313 6.417969 C 251.570313 2.140625 253.605469 0 257.671875 0 C 261.738281 0 263.773438 2.140625 263.773438 6.417969 L 263.773438 32.183594 C 263.773438 36.460938 261.738281 38.601563 257.671875 38.601563 C 253.605469 38.601563 251.570313 36.460938 251.570313 32.183594 "/>
</g>
<g clip-path="url(#clip9)" clip-rule="nonzero">
<path style=" stroke:none;fill-rule:nonzero;fill:rgb(13.299561%,11.799622%,12.199402%);fill-opacity:1;" d="M 299.582031 34.289063 L 302.210938 0.316406 L 305.472656 0.316406 L 301.636719 38.285156 L 297.113281 38.285156 L 294.484375 4.523438 L 294.378906 4.523438 L 291.746094 38.285156 L 287.226563 38.285156 L 283.386719 0.316406 L 286.648438 0.316406 L 289.484375 34.289063 L 289.59375 34.289063 L 292.273438 0.316406 L 296.589844 0.316406 L 299.480469 34.289063 "/>
</g>
<g clip-path="url(#clip10)" clip-rule="nonzero">
<path style=" stroke:none;fill-rule:nonzero;fill:rgb(13.299561%,11.799622%,12.199402%);fill-opacity:1;" d="M 334.34375 0.316406 L 337.394531 0.316406 L 337.394531 38.285156 L 332.394531 38.285156 L 327.980469 4.523438 L 327.980469 38.285156 L 324.929688 38.285156 L 324.929688 0.316406 L 330.035156 0.316406 L 334.34375 32.816406 "/>
</g>
</g>
</svg>
