<?xml version="1.0" encoding="utf-8"?>
<!-- Generator: Adobe Illustrator 26.0.3, SVG Export Plug-In . SVG Version: 6.00 Build 0)  -->
<svg version="1.0" id="Layer_1" xmlns="http://www.w3.org/2000/svg" xmlns:xlink="http://www.w3.org/1999/xlink" x="0px" y="0px"
	 viewBox="0 0 971.7 715.3" style="enable-background:new 0 0 971.7 715.3;" xml:space="preserve">
<path d="M824.3,138.5c-12.1-19.9-33.7-32-57-31.9c-31.3,0-57.5,21.4-64.5,50.1c-4,15.2-6.3,31.9-6,58.7c0,3.4-0.1,88.5-0.1,91.9
	h94.5v20.4l-94.6-0.1v294.8h-38.5l-0.2-294.8v-20.1c0-3.3,0-88.4,0.1-91.9c3.2-86.6,46.2-127.2,103.6-127.2
	c30.6-0.2,59.1,15.4,75.3,41.2L824.3,138.5z M604.9,623c-5.8-0.1-10.5-4.9-10.4-10.7c0.1-5.8,4.9-10.5,10.7-10.4
	c5.8,0.1,10.4,4.8,10.4,10.5C615.5,618.4,610.7,623.1,604.9,623z M512.5,123.7c0-18.1,14.7-33.1,30.4-33.1h8.4v531.8h-38.7V123.7z
	 M452.9,623c-5.8-0.1-10.5-4.9-10.4-10.7c0.1-5.8,4.9-10.5,10.7-10.4c5.8,0.1,10.4,4.8,10.4,10.5C463.5,618.4,458.7,623.1,452.9,623
	C452.9,623,452.9,623,452.9,623z M175.8,457.6c-1.3,99.8,61,149.6,120.3,149.6c53.6,0,85.5-28.8,100.8-42.8l11.5,11.5
	c-20.4,22.4-60.6,51.2-116.1,51.2c-88.6,0-157.5-70.3-157.5-163.7c0-88.9,67-157.9,148.6-157.9c84.9,0,136.2,60.7,140.1,146.7
	c0.2,4,0.1,5.5,0.1,5.5H175.8z M283.9,322c-44,0-103.1,40.3-108.2,117.7h208.3C381.5,368,338.8,322,283.9,322z M754.2,602
	c5.8,0.1,10.5,4.9,10.4,10.7s-4.9,10.5-10.7,10.4c-5.8-0.1-10.4-4.8-10.4-10.5l0,0C743.6,606.7,748.4,601.9,754.2,602
	C754.2,602,754.2,602,754.2,602z"/>
</svg>
