<?xml version="1.0" encoding="utf-8"?>
<!-- Generator: Adobe Illustrator 16.0.0, SVG Export Plug-In . SVG Version: 6.00 Build 0)  -->
<!DOCTYPE svg PUBLIC "-//W3C//DTD SVG 1.1//EN" "http://www.w3.org/Graphics/SVG/1.1/DTD/svg11.dtd">
<svg version="1.1" id="Layer_1" xmlns="http://www.w3.org/2000/svg" xmlns:xlink="http://www.w3.org/1999/xlink" x="0px" y="0px"
	 width="315px" height="70px" viewBox="0 0 315 70" enable-background="new 0 0 315 70" xml:space="preserve">
<g>
	<g>
		<path d="M22.8,34.769l-7.458-13.223h-0.075v13.223H8.897V7.648h6.371v12.176h0.075l7.383-12.176h7.083l-8.095,13.037l8.282,14.084
			H22.8z"/>
		<path d="M44.24,24.244v10.525h-6.371V24.244l-7.72-16.596h6.821l4.047,10.189h0.075l4.047-10.189h6.858L44.24,24.244z"/>
		<path d="M54.211,34.769V7.648h6.371v21.803h7.495v5.318H54.211z"/>
		<path d="M71.416,34.769V7.648h6.371v27.121H71.416z"/>
		<path d="M82.285,34.769V7.648H96.9v5.32h-8.357v5.543h7.458v5.207h-7.458v5.732H96.9v5.318H82.285z"/>
		<path d="M119.728,35.218c-6.071,0-10.868-4.607-10.868-14.01s4.797-14.01,10.868-14.01c2.398,0,4.609,0.6,5.921,1.461
			l-1.949,5.057c-0.712-0.523-1.836-0.973-3.148-0.973c-3.11,0-5.134,2.996-5.134,8.391s2.024,8.428,5.134,8.428
			c1.312,0,2.436-0.486,3.148-1.01l1.949,5.205C124.337,34.621,122.238,35.218,119.728,35.218z"/>
		<path d="M138.73,35.218c-7.233,0-10.568-6.029-10.568-14.01c0-7.979,3.335-14.01,10.568-14.01c7.232,0,10.567,6.031,10.567,14.01
			C149.298,29.189,145.963,35.218,138.73,35.218z M138.73,12.781c-2.773,0-4.197,3.184-4.197,8.428s1.424,8.43,4.197,8.43
			c2.772,0,4.197-3.186,4.197-8.43S141.503,12.781,138.73,12.781z"/>
		<path d="M159.158,35.218c-2.736,0-5.658-0.637-7.194-1.461l2.061-5.543c1.199,0.711,3.11,1.273,4.835,1.273
			c2.023,0,3.146-1.049,3.146-2.51s-1.348-2.322-3.035-3.109c-2.848-1.348-6.67-3.371-6.67-8.316c0-5.02,3.297-8.354,9.031-8.354
			c2.773,0,5.059,0.637,6.521,1.461l-1.949,5.096c-0.975-0.525-2.623-1.125-4.273-1.125c-1.873,0-2.959,1.049-2.959,2.51
			c0,1.424,1.387,2.322,3.072,3.184c2.848,1.461,6.82,3.373,6.82,8.279C168.564,31.66,165.268,35.218,159.158,35.218z"/>
		<path d="M195.549,34.769l-1.537-15.658c-0.186-1.76-0.299-3.82-0.299-3.82h-0.074c0,0-0.375,2.023-0.9,3.82l-4.572,15.658h-3.896
			l-4.572-15.658c-0.525-1.797-0.9-3.82-0.9-3.82h-0.074c0,0-0.074,2.061-0.262,3.82l-1.574,15.658h-5.885l3.262-27.121h7.119
			l4.01,13.973c0.451,1.611,0.787,3.559,0.787,3.559h0.076c0,0,0.336-1.947,0.787-3.559l4.01-13.973h7.119l3.262,27.121H195.549z"/>
		<path d="M204.811,34.769V7.648h14.615v5.32h-8.357v5.543h7.459v5.207h-7.459v5.732h8.357v5.318H204.811z"/>
		<path d="M233.746,12.968v21.801h-6.371V12.968h-5.17v-5.32h16.713v5.32H233.746z"/>
		<path d="M242.33,34.769V7.648h6.371v27.121H242.33z"/>
		<path d="M263.32,35.218c-6.072,0-10.869-4.607-10.869-14.01s4.797-14.01,10.869-14.01c2.398,0,4.609,0.6,5.92,1.461l-1.949,5.057
			c-0.711-0.523-1.836-0.973-3.146-0.973c-3.111,0-5.135,2.996-5.135,8.391s2.023,8.428,5.135,8.428c1.311,0,2.436-0.486,3.146-1.01
			l1.949,5.205C267.93,34.621,265.83,35.218,263.32,35.218z"/>
		<path d="M278.613,35.218c-2.736,0-5.66-0.637-7.195-1.461l2.061-5.543c1.199,0.711,3.109,1.273,4.834,1.273
			c2.023,0,3.148-1.049,3.148-2.51s-1.35-2.322-3.035-3.109c-2.85-1.348-6.672-3.371-6.672-8.316c0-5.02,3.299-8.354,9.031-8.354
			c2.773,0,5.061,0.637,6.521,1.461l-1.949,5.096c-0.975-0.525-2.623-1.125-4.271-1.125c-1.873,0-2.961,1.049-2.961,2.51
			c0,1.424,1.387,2.322,3.072,3.184c2.85,1.461,6.822,3.373,6.822,8.279C288.02,31.66,284.721,35.218,278.613,35.218z"/>
	</g>
	<g>
		<path d="M116.987,58.002c-2.148,0-4.321-0.392-5.591-0.899V41.646c1.416-0.531,3.467-0.9,5.591-0.9
			c4.736,0,6.812,1.961,6.812,4.66c0,1.777-1.221,3.186-2.637,3.6v0.047c1.367,0.461,3.027,1.869,3.027,4.084
			C124.189,56.181,121.797,58.002,116.987,58.002z M116.963,43.654c-0.61,0-1.27,0.092-1.636,0.207v4.061h1.953
			c0.928,0,1.538-0.186,1.904-0.484c0.415-0.322,0.684-0.9,0.684-1.615C119.868,44.484,119.062,43.654,116.963,43.654z
			 M119.282,51.152c-0.464-0.301-1.001-0.484-1.978-0.484h-1.978v4.221c0.391,0.115,1.074,0.209,1.66,0.209
			c2.148,0,3.101-0.693,3.101-2.238C120.088,52.121,119.795,51.498,119.282,51.152z"/>
		<path d="M133.86,51.244v6.481h-4.15v-6.481l-5.029-10.221h4.443l2.636,6.275h0.049l2.637-6.275h4.469L133.86,51.244z"/>
		<path d="M155.179,57.725l-4.858-8.144h-0.049v8.144h-4.15V41.023h4.15v7.498h0.049l4.81-7.498h4.614l-5.273,8.029l5.395,8.673
			H155.179z"/>
		<path d="M169.146,51.244v6.481h-4.15v-6.481l-5.029-10.221h4.443l2.637,6.275h0.049l2.637-6.275h4.467L169.146,51.244z"/>
		<path d="M175.645,57.725V41.023h4.15v13.428h4.883v3.274H175.645z"/>
		<path d="M186.852,57.725V41.023h4.15v16.702H186.852z"/>
		<path d="M193.934,57.725V41.023h9.521v3.275h-5.443v3.416h4.857v3.207h-4.857v3.529h5.443v3.274H193.934z"/>
		<path d="M208.928,62.802v-3.37c1.637-0.322,2.809-1.43,2.809-3.552V41.023h4.15V55.88C215.887,60.17,213.25,62.409,208.928,62.802
			z"/>
		<path d="M218.818,57.725V41.023h9.523v3.275h-5.445v3.416h4.859v3.207h-4.859v3.529h5.445v3.274H218.818z"/>
		<path d="M240.818,57.725l-5.371-8.673c-0.609-0.969-1.074-2.008-1.074-2.008h-0.049c0,0,0.049,1.154,0.049,2.238v8.442h-3.516
			V41.023h3.443l5.225,8.398c0.586,0.922,1.049,2.006,1.049,2.006h0.049c0,0-0.023-1.199-0.023-2.307v-8.098h3.516v16.702H240.818z"
			/>
		<path d="M257.01,57.725l-5.371-8.673c-0.611-0.969-1.074-2.008-1.074-2.008h-0.049c0,0,0.049,1.154,0.049,2.238v8.442h-3.516
			V41.023h3.441l5.225,8.398c0.586,0.922,1.051,2.006,1.051,2.006h0.049c0,0-0.025-1.199-0.025-2.307v-8.098h3.516v16.702H257.01z"
			/>
		<path d="M263.238,57.725V41.023h9.521v3.275h-5.443v3.416h4.857v3.207h-4.857v3.529h5.443v3.274H263.238z"/>
		<path d="M284.408,57.725l-1.928-4.958c-0.342-0.9-1.025-1.523-2.1-1.523h-1.025v6.481h-4.078V41.646
			c1.465-0.576,3.492-0.9,5.566-0.9c4.566,0,6.91,1.916,6.91,5.191c0,2.285-1.539,3.508-3.102,4.061v0.047
			c0.928,0.508,1.588,1.453,2.027,2.561l2.1,5.12H284.408z M280.941,43.675c-0.561,0-1.221,0.07-1.586,0.186v4.613h1.586
			c1.832,0,2.734-0.76,2.734-2.307C283.676,44.552,282.871,43.675,280.941,43.675z"/>
	</g>
	<g>
		<path d="M293.264,14.212c0.426,0.264,1.049,0.482,1.703,0.482c0.973,0,1.541-0.514,1.541-1.258c0-0.688-0.393-1.082-1.387-1.463
			c-1.203-0.426-1.945-1.049-1.945-2.088c0-1.146,0.951-1.998,2.381-1.998c0.754,0,1.301,0.174,1.629,0.359l-0.262,0.775
			c-0.24-0.131-0.732-0.35-1.398-0.35c-1.006,0-1.389,0.602-1.389,1.104c0,0.689,0.449,1.027,1.465,1.422
			c1.244,0.48,1.879,1.08,1.879,2.162c0,1.137-0.842,2.119-2.578,2.119c-0.711,0-1.486-0.207-1.879-0.469L293.264,14.212z"/>
		<path d="M304.988,12.138c-0.055-1.027-0.119-2.262-0.109-3.18h-0.033c-0.25,0.863-0.557,1.781-0.928,2.797l-1.301,3.572h-0.721
			l-1.191-3.508c-0.35-1.037-0.645-1.988-0.852-2.861h-0.021c-0.021,0.918-0.076,2.152-0.143,3.256l-0.197,3.156h-0.906l0.514-7.363
			h1.213l1.256,3.562c0.307,0.906,0.559,1.715,0.744,2.48h0.031c0.188-0.744,0.449-1.553,0.777-2.48l1.311-3.562h1.213l0.459,7.363
			h-0.93L304.988,12.138z"/>
	</g>
</g>
</svg>
