<svg xmlns="http://www.w3.org/2000/svg" viewBox="0 0 571.19 68.12"><title>Maybelline logo - Brandlogos.net</title><polygon points="375.2 52.05 379.05 52.05 388.13 63.93 388.13 63.93 388.13 52.05 391.62 52.05 391.62 67.77 387.78 67.77 378.35 55.9 378.35 55.9 378.35 67.77 375.2 67.77 375.2 52.05 375.2 52.05" style="fill:#1d1d1b;fill-rule:evenodd"/><polygon points="403.15 52.05 416.77 52.05 416.77 54.5 406.29 54.5 406.29 58.69 416.07 58.69 416.07 61.14 406.29 61.14 406.29 65.33 416.77 65.33 416.77 67.77 403.15 67.77 403.15 52.05 403.15 52.05" style="fill:#1d1d1b;fill-rule:evenodd"/><polygon points="425.86 52.05 429.35 52.05 433.19 64.28 433.19 64.28 437.04 52.05 440.53 52.05 444.37 64.28 444.37 64.28 447.87 52.05 451.36 52.05 446.12 67.77 442.63 67.77 438.78 55.9 438.78 55.9 434.59 67.77 431.1 67.77 425.86 52.05 425.86 52.05" style="fill:#1d1d1b;fill-rule:evenodd"/><polygon points="474.42 61.84 467.43 52.05 471.62 52.05 475.81 59.04 480.36 52.05 484.55 52.05 477.56 61.84 477.56 67.77 474.42 67.77 474.42 61.84 474.42 61.84" style="fill:#1d1d1b;fill-rule:evenodd"/><path d="M729.12,543.61c-3.84,0-5.94-2.1-5.94-5.59s2.1-5.94,5.94-5.94c3.49,0,5.59,2.45,5.59,5.94s-2.1,5.59-5.59,5.59Zm0,2.45c6.64,0,9.08-3.84,9.08-8,0-4.54-2.45-8.39-9.08-8.39s-9.44,3.84-9.44,8.39c0,4.19,2.8,8,9.44,8Z" transform="translate(-226.41 -477.94)" style="fill:#1d1d1b;fill-rule:evenodd"/><path d="M752.18,537v-4.54h5.94c1.75,0,2.8.7,2.8,2.45s-1,2.1-2.8,2.1ZM749,545.71h3.14v-6.29h5.59c2.45,0,2.8,1.75,2.8,3.84a12.41,12.41,0,0,0,.35,2.45h3.84c-.7-.7-.7-2.45-.7-3.15,0-2.45-.7-3.84-2.45-4.54h0a3.87,3.87,0,0,0,2.8-3.84c0-2.45-1.4-4.19-5.59-4.19H749v15.72Z" transform="translate(-226.41 -477.94)" style="fill:#1d1d1b;fill-rule:evenodd"/><polygon points="548.83 52.05 552.32 52.05 552.32 59.39 560.36 52.05 564.9 52.05 557.56 58.34 565.25 67.77 560.71 67.77 554.77 60.44 552.32 62.89 552.32 67.77 548.83 67.77 548.83 52.05 548.83 52.05" style="fill:#1d1d1b;fill-rule:evenodd"/><path d="M795.5,478.29a1.85,1.85,0,0,0-2.1,2.1,2,2,0,0,0,2.1,2.1,2.25,2.25,0,0,0,2.1-2.1,2,2,0,0,0-2.1-2.1Zm0,.35a1.75,1.75,0,1,1,0,3.49,1.78,1.78,0,1,1,0-3.49Zm-.7,1.75h.7l.7,1h.35l-.7-1a1.22,1.22,0,0,0,.35-.7c0-.35,0-.7-.7-.7h-1v2.45h.35v-1Zm0-.35v-.7h.7c.35,0,.35,0,.35.35s-.35.35-.7.35Z" transform="translate(-226.41 -477.94)" style="fill:#fff;fill-rule:evenodd"/><polygon points="0 0 8.38 0 23.41 30.74 38.08 0 46.46 0 46.46 36.68 40.52 36.68 40.52 6.29 40.52 6.29 25.85 36.68 20.61 36.68 5.94 6.29 5.94 6.29 5.94 36.68 0 36.68 0 0 0 0" style="fill:#1d1d1b;fill-rule:evenodd"/><path d="M319.33,482.48h0l8,17.12H311.3l8-17.12Zm-21.66,32.14h6.64l5.24-11.18h19.56l5.24,11.18h7l-18.52-36.68h-7l-18.17,36.68Z" transform="translate(-226.41 -477.94)" style="fill:#1d1d1b;fill-rule:evenodd"/><polygon points="153.37 21.66 153.37 36.68 147.08 36.68 147.08 21.66 128.91 0 136.25 0 150.57 17.47 164.19 0 171.18 0 153.37 21.66 153.37 21.66" style="fill:#1d1d1b;fill-rule:evenodd"/><path d="M427.63,497.85H442c5.24,0,10.13,1.39,10.13,6.29,0,3.84-3.49,6.29-8.73,6.29H427.63V497.85Zm-5.94,16.77h22.36c9.43,0,14.32-5.24,14.32-10.48,0-4.54-3.15-8-9.08-8.73h0c4.54-1.4,7-4.54,7-8.38a8.34,8.34,0,0,0-5.24-7.69c-2.8-1.4-8.39-1.4-12.58-1.4H421.69v36.68Zm5.94-32.49h12.58c5.59,0,10.13.7,10.13,5.94,0,3.84-3.14,5.59-10.13,5.59H427.63V482.13Z" transform="translate(-226.41 -477.94)" style="fill:#1d1d1b;fill-rule:evenodd"/><polygon points="259.92 0 292.06 0 292.06 4.19 266.2 4.19 266.2 15.72 290.31 15.72 290.31 19.91 266.2 19.91 266.2 32.49 292.4 32.49 292.4 36.68 259.92 36.68 259.92 0 259.92 0" style="fill:#1d1d1b;fill-rule:evenodd"/><polygon points="320 0 325.94 0 325.94 32.49 350.75 32.49 350.75 36.68 320 36.68 320 0 320 0" style="fill:#1d1d1b;fill-rule:evenodd"/><polygon points="374.85 0 381.14 0 381.14 32.49 405.94 32.49 405.94 36.68 374.85 36.68 374.85 0 374.85 0" style="fill:#1d1d1b;fill-rule:evenodd"/><polygon points="431.45 0 437.74 0 437.74 36.68 431.45 36.68 431.45 0 431.45 0" style="fill:#1d1d1b;fill-rule:evenodd"/><polygon points="466.73 0 473.37 0 498.17 29.69 498.17 29.69 498.17 0 504.11 0 504.11 36.68 497.47 36.68 472.67 7.33 472.67 7.33 472.67 36.68 466.73 36.68 466.73 0 466.73 0" style="fill:#1d1d1b;fill-rule:evenodd"/><polygon points="532.76 0 565.25 0 565.25 4.19 539.05 4.19 539.05 15.72 563.5 15.72 563.5 19.91 539.05 19.91 539.05 32.49 565.25 32.49 565.25 36.68 532.76 36.68 532.76 0 532.76 0" style="fill:#1d1d1b;fill-rule:evenodd"/></svg>