<?xml version="1.0" encoding="utf-8"?>
<!-- Generator: Adobe Illustrator 19.0.0, SVG Export Plug-In . SVG Version: 6.00 Build 0)  -->
<svg version="1.1" id="layer" xmlns="http://www.w3.org/2000/svg" xmlns:xlink="http://www.w3.org/1999/xlink" x="0px" y="0px"
	 viewBox="-153 -46 652 652" style="enable-background:new -153 -46 652 652;" xml:space="preserve">
<path d="M380.3,407.5c-6.4-0.7-12.8-1-19.1-2.2c-18.1-3.6-34.6-10-47.7-23.7c-11.2-11.7-17-26-19.4-41.8c-0.8-5.4-1.2-10.8-1.3-16.3
	c-0.1-3.2,1.9-3.1,4-3.3c2.1-0.2,3.5,0.1,3.6,2.8c0.5,8.3,1.3,16.5,3.3,24.6c5.5,21.7,19,36.3,39.4,44.9c1.9,0.8,2.7,0.4,2.4-1.8
	c-2.4-16-2.6-32.1-2.8-48.2c-0.1-9.1-1.1-18.1-4.3-26.7c-5.1-13.7-15.5-21.1-29.1-24.7c-8.1-2.2-16.3-3.1-24.6-3.1
	c-31,0-62.1,0-93.1-0.1c-2.9,0-4,0.8-3.8,3.8c0.4,7.9-0.3,15.8,0.4,23.7c0.5,5.2,2.9,9.7,4.8,14.4c8.8,22.6,17.8,45.2,26.7,67.8
	c0.3,0.8,0.6,1.6,0.9,2.5c0.2,0.6,0.1,1.1-0.5,1.5c-2.5,1.4-7.4-0.3-8.5-3c-6.7-16.7-13.3-33.4-19.9-50c-0.9-2.3-1.8-4.6-2.8-6.9
	c-0.2,0-0.4,0.1-0.5,0.1c-0.2,3.4-0.4,6.8-0.5,10.1c0,15.3,0,30.7,0,46c0,1.2,0.6,2.9-0.8,3.5c-1.8,0.7-3.9,0.6-5.7,0
	c-1-0.3-0.8-1.5-0.8-2.3c0-2.8,0-5.7,0-8.5c0-21.6,0-43.1,0-64.7c0-3.8,0-3.9-3.9-3.9c-38.3,0-76.5,0-114.8,0c-3.9,0-4,0-4,4.1
	c0,23.7,0,47.4,0,71.2c0,4.4,0,4.1-4.3,4.5c-4.9,0.5-8-1.2-10.5-5.4c-2.4-4.2-5.5-8-8.4-12c-0.4-0.5-0.6-1.4-1.4-1.4
	c-1,0-1,1.1-1.2,1.8c-2,4.9-3.9,9.8-5.9,14.6c-0.8,2-7.3,3.4-8.7,2c-0.9-0.9-0.1-1.8,0.3-2.7c2.7-6.7,5.3-13.4,8.3-20
	c1.4-3,1-5.2-0.9-7.9C2,338.4-21,305.9-44,273.4c-24.4-34.5-48.9-68.9-73.4-103.4c-0.4-0.5-0.8-1.1-1.7-2.4c0,1.9,0,3,0,4.1
	c0,74.5,0,149,0,223.5c0,1,0,2,0,2.9c0,3.3-3.5,5.1-6.5,3.5c-0.7-0.4-0.8-1-0.9-1.7c0-1,0-2,0-2.9c0-78,0-156,0-234
	c0-5,0-4.7,4.9-5.1c4.1-0.3,6.5,1.2,8.8,4.5C-72.5,219.3-32.2,276.2,8.1,333c7.1,10,14.2,20.1,21.4,30.1c0.5,0.7,0.7,1.9,1.8,1.6
	c0.8-0.2,0.9-1.2,1.2-1.9c5.5-13.7,11.1-27.3,16.6-41c1.2-2.8,1.4-5.8,1.4-8.9c0-50.3,0-100.6-0.1-150.8c0-4,0.2-4.2,3.7-4.2
	c3.5,0,3.7,0.2,3.7,3.9c0,39.6,0,79.3,0,118.9c0,5.7,0,11.5,0,17.6c1.6-0.6,1.6-1.6,1.9-2.3c18.1-44.6,36.1-89.2,54.2-133.8
	c0.6-1.5,0.7-3.6,2.5-4c2.6-0.6,5.3-0.6,7.8,0c1.5,0.4,1.6,2.1,2.1,3.3c11.7,29.6,23.4,59.2,35.1,88.8c5.8,14.8,11.6,29.6,17.4,44.5
	c0.2,0.5,0.4,1,0.6,1.6c0.3,0,0.7,0,1,0c0-5.9,0-11.7,0-17.6c0-38.8,0-77.5,0-116.3c0-4.5,0-4.5,4.6-4.5c30.4,0,60.7-0.1,91.1,0
	c12.2,0,24.4,0.7,36.3,3.9c3.6,1,7.1,2.2,10.5,3.7c1.6,0.7,2.9,0.7,4.4-0.1c15.8-9,33-12.5,51.1-12.9c14.3-0.3,28.5,0.4,42.3,4.8
	c28.1,8.8,43.5,28.3,47.9,57c0.5,3.4,0.7,6.8,1,10.2c0.2,2.1-1,2.8-2.8,2.7c-1.8-0.2-4.1,0.9-4.4-2.3c-0.7-7-1.7-13.9-3.7-20.7
	c-5.7-19.3-18.5-31.7-37.1-38.4c-9.7-3.5-19.8-4.9-30.1-5.5c-15.6-0.9-30.8,0.6-45.6,5.5c-3.7,1.2-7.3,2.7-10.8,4.5
	c-1.4,0.7-1.4,1.2-0.2,2.2c12.5,10.5,18,24.4,19.6,40.2c1.4,13.5,0,26.5-6.1,38.8c-1.2,2.4-2.5,4.7-4,6.8c-1.6,2.1-1.2,3,1.2,3.8
	c11.7,3.9,23.7,6.6,35.6,9.4c16.6,3.9,33.3,7.7,49.5,13c7.5,2.5,14.8,5.6,21.4,10c11.5,7.6,18.4,18.3,21,31.8
	c0.1,0.8,0.4,1.5,0.5,2.3c0,8.4,0,16.8,0,25.2c-0.3,0.9-0.6,1.9-0.8,2.8c-2.5,11-7.9,20.3-16.1,27.9c-12.5,11.7-27.8,17.7-44.3,21
	c-6.1,1.2-12.3,1.5-18.5,2.2C389.3,407.5,384.8,407.5,380.3,407.5z M187.8,222.8c0,18.1,0,36.1,0,54.2c0,2,0.1,3.3,2.7,3.3
	c32.7-0.4,65.4,0.9,98-0.7c14-0.7,26.8-5.6,38.2-14c1.8-1.3,1.8-2.1-0.2-3.2c-6.2-3.6-11.8-8-16.3-13.7c-6.4-8-9.1-17.3-10-27.3
	c-1.5-18,2.9-34,15.6-47.3c2.2-2.3,2.2-2.4-0.9-3.4c-10.6-3.4-21.5-4.8-32.6-4.8c-30.4,0-60.7,0-91-0.1c-3.1,0-3.7,1.1-3.7,3.9
	C187.9,187.3,187.8,205.1,187.8,222.8z M303.9,283.4c4.8,1.2,8.9,2.2,12.9,3.3c12.9,3.7,22.7,11.1,28,23.7
	c2.5,5.9,3.9,12.1,4.6,18.4c1.5,12.9,1.1,25.9,1.7,38.9c0.4,8.5,1.1,16.9,2.4,25.3c0.3,2.1,1.3,3.2,3.5,3.7
	c6.1,1.2,12.3,2.2,18.5,2.7c18.1,1.3,35.9,0.1,53-6.5c11.4-4.4,21.5-10.9,28.7-20.9c10.2-14.1,11.8-29.9,7.5-46.3
	c-4-15.3-14.8-24.6-28.6-30.9c-11.9-5.4-24.6-8.2-37.2-11.2c-20.4-4.8-41.1-8.4-60.8-15.9c-1-0.4-1.8-0.4-2.7,0.4
	C326.5,275.7,316,280.3,303.9,283.4z M120.4,166.9c-1.1,0.7-1.2,1.8-1.5,2.8c-19,47.1-38,94.3-57,141.4c-1.3,3.1-1.2,3.2,2.2,3.2
	c36.6,0,73.2,0,109.8,0c3.8,0,3.8,0,2.4-3.7c-18-46.7-36-93.4-54.1-140C121.7,169.3,121.6,167.8,120.4,166.9z M346.8,220.6
	c0-2.1,0.1-4.3,0-6.4c-1.1-14.5-6.3-27-17.9-36.4c-2.2-1.8-3.6-1.7-5.7,0.2c-20,17.4-24.6,61,8.4,78.1c2.8,1.4,4,1,5.6-1.4
	C344.1,244.3,347.1,233,346.8,220.6z M50.2,341.3c-0.8,0.3-0.8,1.1-1,1.7c-3.4,8.3-6.5,16.7-10.3,24.8c-1.9,4.2-1.8,7.3,1.3,10.7
	c2.1,2.4,3.7,5.2,5.6,7.8c1.3,1.8,2.6,3.5,4.4,5.8C50.2,374.7,50.2,358,50.2,341.3z"/>
</svg>
