<?xml version="1.0" encoding="utf-8"?>
<!-- Generator: Adobe Illustrator 19.0.0, SVG Export Plug-In . SVG Version: 6.00 Build 0)  -->
<svg version="1.1" id="layer" xmlns="http://www.w3.org/2000/svg" xmlns:xlink="http://www.w3.org/1999/xlink" x="0px" y="0px"
	 viewBox="-153 -46 652 652" style="enable-background:new -153 -46 652 652;" xml:space="preserve">
<path d="M337.8,193.7H322v3.4c0,18.7-16.8,33.8-37.4,33.8c-20.6,0-37.4-15.2-37.4-33.8v-3.4h-15.8v3.4c0,17.2,10.3,32.5,26.2,41.1
	c-3.7,2-7.2,4.2-10.3,6.9c-10.3,9.2-16,21.5-16,34.6v3.4h15.8v-3.4c0-9.1,4-17.7,11.2-24.1c5.1-4.6,11.4-7.6,18.3-9
	c2.6-0.5,5.2-0.8,7.9-0.8c20.6,0,37.4,15.2,37.4,33.8v3.4h15.8v-3.4c0-17.3-10.5-32.7-26.6-41.3c16.1-8.6,26.6-24,26.6-41.3
	 M107.2,193.7H91.4v74.2c-42.8-3.4-76-33.8-76-70.7v-3.4l-3.6-0.1H-0.5V283h15.8v-39.6c17.3,23.4,46.7,38.3,79.4,39.5l4.5,0.1
	l4.4-0.1h3.5V193.7z M226.5,193.8h-15.8v3.4c0,21.1-18.2,38.2-40.5,38.2c-22.3,0-40.5-17.2-40.5-38.2v-3.4H114v3.4
	c0,26.2,21,48.4,48.4,52v33.9h15.8v-33.9c27.3-3.7,48.4-25.8,48.4-52V193.8z M175.6,301c-2.6,0-4.8,1.8-5.3,4.1
	c-0.5-2.4-2.7-4.1-5.3-4.1c-3,0-5.4,2.4-5.4,5.2c0,1,0.3,1.9,0.8,2.7l0,0l0.1,0.2l9.6,11.7l10-11.7h0c0.6-0.8,0.9-1.8,0.9-2.9
	C181,303.4,178.5,301,175.6,301 M329.8,337L329.8,337l-1,0.2l-0.5,0l-0.5-0.1l0,0l0,0l-0.8,2.1c-0.3,0.8-0.7,1.8-1.2,2.8
	c-0.4,1-1,2.2-1.6,3.6c-0.6,1.3-1.3,2.9-2.1,4.5l-3.6,7.7l0,0.1l0.1,0l0.7-0.1l0.7-0.1l0.8,0.1l0.7,0.1l0,0l0,0c0.2-0.8,0.6-1.9,1-3
	c0.4-1.1,0.9-2.3,1.4-3.4l1.8-0.1l1.8,0l2,0l1.9,0.1l1.3,3.1l1.3,3.3l0,0h0l1-0.1l1.2-0.1l1.3,0.1l1,0.1l0.1,0l0-0.1
	c-1.5-3.3-3.1-6.6-4.6-10l-1-2.2c-0.3-0.7-0.7-1.6-1.1-2.6c-0.4-0.9-0.8-1.9-1.2-2.9C330.6,339.1,330.2,338.1,329.8,337L329.8,337z
	 M327.8,349.6l-1.6,0l-1.5-0.1l3.1-7.2l2.9,7.2l-1.4,0.1L327.8,349.6 M202.9,337L202.9,337l-1,0.2l-0.5,0l-0.5-0.1l0,0l0,0l-0.7,2.1
	c-0.3,0.8-0.7,1.7-1.2,2.8c-0.4,1-1,2.2-1.6,3.6c-0.4,0.9-0.8,1.8-1.3,2.8l-0.8,1.7l-3.6,7.7l0,0.1l0.1,0l0.6-0.1l0.7-0.1l0.8,0.1
	l0.7,0.1l0,0l0,0c0.2-0.8,0.6-1.9,1-3c0.5-1.2,1-2.3,1.4-3.4l1.8-0.1l1.9,0l2,0l1.9,0.1l1.3,3.1l1.3,3.3l0,0h0l1-0.1l1.2-0.1
	l1.3,0.1l1.1,0.1l0.1,0l0-0.1l-1.1-2.4l-1.2-2.7l-1.2-2.6l-1-2.2c-0.3-0.6-0.6-1.2-1-2.2c-0.3-0.7-0.7-1.6-1.1-2.6
	c-0.4-0.9-0.8-1.9-1.2-2.9C203.6,339.1,203.3,338.1,202.9,337L202.9,337z M200.9,349.6l-1.6,0l-1.5-0.1l3.1-7.2l2.8,7.2l-1.4,0.1
	L200.9,349.6 M127.5,337.1c-1.6,0-3.1,0.2-4.5,0.6c-1.4,0.4-2.7,1.1-3.7,2c-1.1,0.9-1.9,2.1-2.5,3.4c-0.6,1.4-0.9,3-0.9,4.9
	c0,1.6,0.3,3.1,0.9,4.4c0.6,1.3,1.4,2.4,2.5,3.2c1,0.9,2.3,1.5,3.7,2c1.4,0.4,2.8,0.7,4.4,0.7h0.2c1.7,0,3.2-0.3,4.6-0.8
	c1.4-0.5,2.7-1.3,3.7-2.2c1-1,1.8-2.1,2.3-3.4c0.6-1.3,0.8-2.9,0.8-4.5c0-1.8-0.3-3.3-1-4.6c-0.6-1.3-1.5-2.4-2.6-3.2
	c-1.1-0.8-2.3-1.5-3.7-1.8C130.4,337.3,129,337.1,127.5,337.1 M127.4,356.7c-1.3,0-2.5-0.3-3.4-0.8l-2.2-2c-0.6-0.8-1-1.8-1.3-2.9
	c-0.3-1.1-0.4-2.2-0.4-3.3c0-1,0.1-2.1,0.4-3.1c0.2-1.1,0.7-2,1.3-2.9l2.2-2.1c0.9-0.5,2-0.8,3.4-0.8c1.3,0,2.5,0.3,3.4,0.7l2.2,2
	c0.6,0.8,1,1.8,1.2,2.9c0.2,1.1,0.4,2.2,0.4,3.5c0,1.1-0.1,2.1-0.4,3.2c-0.3,1.1-0.7,2-1.3,2.9l-2.2,2.1
	C129.8,356.4,128.7,356.7,127.4,356.7 M-55.8,337.1c-1.6,0-3.1,0.2-4.5,0.6c-1.4,0.4-2.6,1.1-3.7,2c-1.1,0.9-1.9,2.1-2.5,3.4
	c-0.6,1.4-0.9,3-0.9,4.9c0,1.6,0.3,3.1,0.9,4.4c0.6,1.3,1.4,2.4,2.5,3.2c1,0.9,2.3,1.5,3.7,2c1.4,0.4,2.8,0.7,4.4,0.7h0.2
	c1.7,0,3.2-0.3,4.6-0.8c1.4-0.5,2.6-1.3,3.7-2.2c1-1,1.8-2.1,2.4-3.4c0.5-1.3,0.8-2.9,0.8-4.5c0-1.8-0.3-3.3-1-4.6
	c-0.6-1.3-1.5-2.4-2.6-3.2c-1.1-0.8-2.3-1.5-3.7-1.8C-52.9,337.3-54.4,337.1-55.8,337.1 M-55.9,356.7c-1.3,0-2.5-0.3-3.4-0.8l-2.2-2
	c-0.6-0.8-1-1.8-1.3-2.9c-0.3-1.1-0.4-2.2-0.4-3.3c0-1,0.1-2.1,0.4-3.1c0.3-1.1,0.7-2,1.3-2.9l2.2-2.1c0.9-0.5,2-0.8,3.4-0.8
	c1.3,0,2.5,0.3,3.4,0.7l2.2,2c0.6,0.8,1,1.8,1.2,2.9c0.2,1.1,0.4,2.2,0.4,3.5c0,1.1-0.1,2.1-0.4,3.2c-0.3,1.1-0.7,2-1.3,2.9
	l-2.2,2.1C-53.5,356.4-54.6,356.7-55.9,356.7 M69.2,337.1c-1.4,0-2.6,0.2-3.5,0.6l-2.2,1.4l-1.2,1.9c-1.6,6.4,2.8,6.9,7.4,8.9
	l0.8,0.6l0.7,1c1.8,4.8-4.7,6.9-7.4,3.6l-1.1-1.8v0h-0.5l0,0.2l-0.1,0.7l-0.1,0.7l-0.2,0.8l-0.3,0.9l0,0.1l0,0l1,0.5l1.3,0.5
	l1.6,0.4l1.8,0.2h0.2c1.4,0,2.6-0.2,3.5-0.6c1-0.4,1.8-0.9,2.4-1.5l1.4-2.1l0.4-2.3l-0.1-0.8l-0.2-1l-0.4-1.1l-0.8-1.1l-0.7-0.6
	l-0.8-0.5l-1.1-0.5l-1.5-0.6l-1.8-0.7l-1.3-0.7l-0.8-1l-0.3-1.3l0.9-2.2c0.6-0.6,1.5-0.9,2.7-0.9c1,0,1.8,0.2,2.6,0.6l1.4,1.9l0,0
	h0.5l0,0l0.2-0.7l0.2-0.6l0.2-0.6l0.4-0.9l0,0l0,0l-2.3-0.9C71.3,337.2,70.3,337.1,69.2,337.1 M38.7,337.1c-1.4,0-2.6,0.2-3.5,0.6
	l-2.2,1.4l-1.2,1.9c-1.6,6.4,2.8,6.9,7.4,8.9l0.8,0.6l0.7,1c1.8,4.8-4.7,6.9-7.4,3.6l-1.1-1.8v0h-0.5l0,0c-0.1,1.2-0.3,2.2-0.7,3.4
	l0,0l0,0l1,0.5l1.3,0.5l1.6,0.4l1.8,0.2h0.2c1.4,0,2.6-0.2,3.5-0.6c1-0.4,1.8-0.9,2.4-1.5l1.4-2.1l0.4-2.3l-0.1-0.8l-0.2-1l-0.4-1.1
	l-0.8-1.1l-0.7-0.6l-0.9-0.5l-1.1-0.5l-1.5-0.6l-1.8-0.7l-1.3-0.7l-0.8-1l-0.3-1.3l0.9-2.2c0.6-0.6,1.5-0.9,2.7-0.9
	c1,0,1.8,0.2,2.6,0.6l1.4,1.9l0,0h0.5v0l0.2-0.7l0.2-0.6l0.2-0.6l0.4-0.9l0,0l0,0l-2.3-0.9C40.8,337.2,39.9,337.1,38.7,337.1
	 M372,337.3l-0.1,0l-1.2,0.1l-0.8,0l-0.8,0l-0.6-0.1h0l0,0l-0.8,1c-1.8,2-3.6,4-5.6,5.9l-1.3,1.2l-1.5,1.3v-2.3
	c0.1-2.3-0.1-4.7,0.3-7.1l0,0h-0.1l-1.1,0.1l-1.1,0.1l-1.1-0.1l-1.1-0.1h0v0c0.2,2.3,0.3,4.6,0.3,6.9v3.5c0,0.9,0,1.8,0,2.5l0,1.7
	c0,1.9-0.1,3.9-0.2,5.8v0h0l1.1-0.1l1.1-0.1l1.2,0.1l1,0.1h0.1l0,0c-0.1-1.5-0.2-3.1-0.2-4.8c0-1.7,0-3.3,0-4.8c1.6,1.7,3,3.4,4.3,5
	c1.2,1.5,2.4,3.1,3.5,4.7l0,0c1.8-0.2,3.6-0.3,5.4,0l0.1,0l-0.1-0.1c-3-2.9-5.6-6.3-8.2-9.6l-1.6-2.1l1.4-1.4
	c2.1-2.2,4.4-4.2,6.7-6.2l1.3-1.1L372,337.3z M300.9,337.3L300.9,337.3l-0.7,0.1l-0.6-0.1h0l0,0c-0.8,1.6-1.5,2.9-2.1,4
	c-0.7,1.3-1.2,2.3-1.7,3.2c-0.5,0.9-1.1,1.9-1.7,3c-0.6,1.1-1.3,2.2-1.9,3.3l-1.1,1.9l-1.6-2.8c-0.8-1.4-1.4-2.4-1.9-3.3l-1.4-2.5
	l-1.2-2.3c-0.4-0.7-0.8-1.5-1.4-2.7l-1-1.9l0,0h0l-0.3,0.1l-1-0.1l0,0v0c-0.1,0.5-0.1,1.3-0.3,2.4c-0.1,1-0.3,2.1-0.5,3.4
	c-0.2,1.2-0.4,2.5-0.6,3.9c-0.2,1.3-0.4,2.6-0.6,3.9c-0.2,1.3-0.4,2.5-0.6,3.4c-0.2,1.1-0.3,1.9-0.4,2.5l-0.2,0.9l0,0.1l0.2,0
	l0.5-0.1l0.7-0.1l1.4,0.2l0,0v-0.1c0.1-2.2,0.3-4.5,0.5-6.7c0.2-2.2,0.5-4.3,0.8-6.4l0.5,0.9l0.1,0.2l0.8,1.4l0.9,1.6l0.4,0.8
	l0.2,0.3c0.5,1,1,1.9,1.5,2.7l1.1,2l0.9,1.6l0.8,1.6l0,0l0,0l0.3,0h0.6l0.3,0l0,0l0,0c0.4-1,1-2.1,1.6-3.3c0.6-1.2,1.3-2.4,2-3.7
	c0.7-1.3,1.4-2.5,2-3.5c0.6-1.1,1.2-2,1.7-2.9l0,0.2c0.5,4.5,1.1,8.7,1.3,13.2v0l0,0l1.2-0.1l0.9,0l1,0.1l1.2,0.1l0.1,0l0-0.1
	l-0.3-1.6l-0.2-1.2l-0.1-0.9l-0.4-2.2l-0.2-1.7c-0.3-1.9-0.5-3.7-0.7-5.2c-0.2-1.6-0.4-3.3-0.6-5.2L300.9,337.3L300.9,337.3z
	 M175.5,337.3L175.5,337.3l-0.6,0.1l-0.7,0.1l-0.7-0.1l-0.6-0.1l-0.1,0v0.1c0.1,1.2,0.2,2.4,0.3,3.7c0.1,1.3,0.1,2.5,0.1,3.8v6.5
	l-0.8-0.6l-0.7-0.6l-3.6-3.5l-2.6-2.5l-2.4-2.3l-2.2-2.3l-2.2-2.3l0,0h0l-0.4,0l-0.3,0l-0.4,0l-0.4,0h0v0c0,1.4,0,2.8,0,4.2v0
	c0,1.4,0,2.8,0,4.2v4.9l0,1.1l0,0.7l0,0.4l0,0.8l-0.3,4.2l0,0c1.1-0.3,1.5-0.2,2.6,0l0.1,0l0-0.1c-0.4-3.8-0.3-7.6-0.4-11.4v-2.6
	l1.9,1.7l2.5,2.3c0.8,0.8,1.7,1.6,2.7,2.6l2.8,2.7l2.6,2.6l2.2,2.3v0l0,0l0.3,0l0.3,0l0.3,0l0.3,0l0,0v-0.7c0-5.8-0.2-11.7,0.1-17.4
	L175.5,337.3L175.5,337.3z M454.7,337.3l0.2,3.8l0,1.1l0,1.4v2.6l-0.1,7.3l-0.1,1.5c0,0.7-0.1,1.6-0.2,2.8v0.1l0.1,0l1-0.1l1.1,0
	l1.1,0l1,0.1l0.1,0v-0.1l-0.1-0.8l-0.1-0.9l-0.1-1.3l0-1.7v-4.4l0.9,0.1l1.2,0c1.5,0,2.7-0.2,3.7-0.6c1-0.4,1.8-0.8,2.4-1.4l1.3-2
	l0.4-2.1v-0.2c0-1-0.2-1.9-0.6-2.5l-1.5-1.6l-2.3-1l-2.3-0.2l-0.8,0l-2.5,0.1l-0.8,0l-1.9,0L454.7,337.3L454.7,337.3z M460.4,347.3
	l-0.8,0l-0.8-0.1V339l1-0.1l1.1,0c1.3,0,2.2,0.4,2.8,1.1c0.6,0.8,0.9,1.7,0.9,2.9l-0.2,1.4l-0.6,1.4l-1.3,1.2L460.4,347.3
	 M436,337.3L436,337.3l-0.8,0.1h-1.4l-0.4-0.1l-0.3-0.1H433v0c0.1,1.9,0.2,3.9,0.2,5.8c0,1.9,0.1,3.9,0.1,5.8l0,1.6l-0.1,1.1
	l-0.1,0.8l-0.2,0.5l-1.9,2.2c-0.9,0.6-2,0.8-3.2,0.8c-1.1,0-2-0.2-2.8-0.5l-1.9-1.3l-0.5-0.9l-0.3-1.2l-0.1-1.9c0-0.8,0-1.7,0-2.9
	c0-1.3,0-2.6,0-4c0-1.4,0-2.6,0.1-3.7l0.1-2.3v0h-0.1l-0.9,0.1l-1,0.1l-1.1-0.1l-0.9-0.1l-0.2,0v0c0.3,4.7,0.1,9.6,0.2,14.2l0.1,0.9
	c0.2,1.2,0.5,2.1,1.1,2.9l2.2,1.8c0.8,0.4,1.8,0.7,2.7,0.9c1,0.2,1.9,0.3,2.9,0.3c0.8,0,1.7-0.1,2.7-0.3c1-0.2,1.8-0.5,2.5-1l1.3-1
	l1-1.3l0.6-1.8l0.2-2.3c0-0.7,0-1.6,0-2.7l0-1.9l0-1.4c0-1.1,0-2.2,0.1-3.2c0-1,0.1-1.9,0.1-2.5L436,337.3z M232.6,337.3
	L232.6,337.3l-1.1,0.1l-1.1,0l-1.1,0l-1.1-0.1h0v0c0.3,6.9,0.3,13.5,0,20.4v0h0c1-0.1,1.9-0.1,3.1-0.1c0.9,0,1.9,0,2.8,0l1.4,0
	l1.6,0.1l1.6,0.1l1.3,0.1h0.1l0-0.1l-0.1-0.5l0-0.5l0.1-0.7l0.1-0.4v-0.1l-0.1,0l-1.7,0.2l-2.2,0.1l-2,0h-1.7l-0.1-2l0-0.6
	c0-1,0-2,0-3c0-1,0-2.2,0-3.3c0-1,0-2,0.1-3.1c0-1,0.1-2.1,0.1-3.1C232.5,339.6,232.5,338.6,232.6,337.3L232.6,337.3z M93.3,337.3
	L93.3,337.3c0.2,1.5,0.3,2.8,0.3,3.9c0,1.1,0,2.1,0,3.1c0,2.8,0,5.2,0,7.4c0,2.3-0.1,4.4-0.3,6.2l0,0h0.1l1.1-0.1l1.1-0.1l1.1,0.1
	l1.1,0.1h0.1l0,0c-0.1-1.2-0.2-2.7-0.3-4.3c0-1.6-0.1-3.6-0.1-5.8v-2.6c0-1,0-2,0-2.9c0-1,0.1-1.9,0.1-2.8l0.2-2.1l0,0l-1.2,0.1
	l-1.1,0.1l-1-0.1L93.3,337.3L93.3,337.3z M-99.7,337.3L-99.7,337.3c0.4,6.8,0.3,13.7-0.1,20.5v0.1l0.1,0c1.5-0.2,2.6-0.3,4.1,0
	l0.1,0v-0.1c0-1.8-0.2-3.7-0.1-5.5v-4.2h0.7c0.7,1,1.6,2.1,2.6,3.6c0.9,1.3,1.8,2.5,2.5,3.7l0.8,1.2l0.8,1.2v0h0
	c1.7-0.3,3.5-0.2,5.2,0l0.1,0l-0.2-0.2c-2.3-2.8-4.6-5.7-6.6-8.7l-0.9-1.3l2-0.6l1.7-1.1l1.2-1.6l0.4-2.2l-0.4-1.8l-1.1-1.5
	l-2.2-1.2c-0.8-0.2-1.7-0.3-2.7-0.3l-1,0l-3.1,0.1l-1,0l-1.9,0L-99.7,337.3L-99.7,337.3z M-93.5,346.8l-1.2,0l-0.9-0.1V339l0.5,0
	c5.5-1.4,8,4.5,3.5,7.4L-93.5,346.8 M-131.3,337.3l0.2,3.8l0,1.1l0,1.4v2.6l-0.1,7.3l-0.1,1.5c0,0.6-0.1,1.6-0.2,2.8v0.1l0.1,0
	l1-0.1l1.1,0l1.1,0l1,0.1l0.1,0l0-0.1l-0.1-0.8l-0.1-0.9l0-1.3l0-1.7v-4.4l0.9,0.1l1.2,0c1.5,0,2.7-0.2,3.7-0.6
	c1-0.4,1.8-0.8,2.4-1.4l1.3-2l0.4-2.2c0-1.1-0.2-2-0.6-2.6l-1.5-1.6l-2.3-1l-2.3-0.2l-0.8,0l-1.3,0l-1.3,0l-0.8,0l-1.9,0
	L-131.3,337.3L-131.3,337.3z M-125.6,347.3l-0.8,0l-0.8-0.1V339l1-0.1l1.1,0c1.3,0,2.2,0.4,2.8,1.1c0.6,0.8,0.9,1.7,0.9,2.9
	l-0.2,1.4l-0.6,1.4l-1.3,1.2L-125.6,347.3 M400.4,337.3L400.4,337.3c-1.2,0-2.2,0.1-3.2,0.1c-1,0-1.8,0.1-2.6,0.1l-1.3,0l-1.5-0.1
	l-1.4-0.1h-0.1l-1.3-0.1h0v0c0.1,0.8,0.1,1.7,0.1,2.6c0,0.9,0.1,1.9,0.1,3c0,1,0,1.9,0,2.7l0,1.7c-0.1,3.5-0.1,7-0.3,10.4v0h0
	c2-0.1,3.9-0.2,5.8-0.2c1.9,0,3.8,0.1,5.7,0.2h0.1l0-0.1l-0.1-1.1l0.1-1l0-0.1h-0.1l-2.1,0.1l-2.2,0.1h0l-1.9,0.1l-1.1,0v-8l2.1,0
	l2.1,0l1.2,0.1l1.2,0.1l0.1,0l0-0.1l-0.2-1l0.1-0.6l0.1-0.5l0-0.1h-0.1l-1.5,0.1l-1.9,0.1l-1.8,0h-1.4v-6.9h2.7l0.8,0l0.8,0.1
	l2.9,0.1h0.1l0-0.1l-0.2-1.1l0.1-0.5l0.1-0.3L400.4,337.3z M14.4,337.3L14.4,337.3c-1.1,0-2.2,0.1-3.2,0.1c-1,0-1.8,0.1-2.5,0.1
	l-1.4,0l-1.5-0.1l-1.3,0l-0.2,0L3,337.3h0v0c0.1,0.8,0.1,1.7,0.1,2.6c0,1,0.1,2,0.1,3c0,1,0,1.9,0,2.7l0,1.7
	c-0.1,3.5-0.1,7-0.3,10.4v0h0c2-0.1,3.9-0.2,5.8-0.2c1.9,0,3.8,0.1,5.7,0.2h0.1l0-0.1l-0.2-1.1l0.2-1l0-0.1h-0.1l-2.2,0.1l-2.1,0.1
	h-0.1l-1.9,0.1l-1.1,0v-8l2.1,0l2.1,0l1.2,0.1l1.2,0.1l0.1,0l0-0.1l-0.2-1l0-0.6l0.1-0.5V346h0l-1.5,0.1l-1.9,0.1l-1.8,0H7.1v-6.9
	h2.7l0.8,0l0.8,0.1l2.9,0.1h0.1l0-0.1l-0.1-1.1l0-0.5l0.1-0.3L14.4,337.3z M-14.4,337.3L-14.4,337.3c-1,0-1.9,0.1-2.9,0.1
	c-1,0-2,0.1-3,0.1l-1.4,0l-1.7-0.1l-1.6-0.1l-1.2-0.1h-0.1l0,0c0.1,1.5,0.2,3.1,0.2,4.6c0.1,1.6,0.1,3.4,0.1,5.3c0,1.1,0,2.1,0,3
	l0,1.6l0,0.6l-0.1,2.3l0,1l-0.1,2.1l0,0.1l0.1,0l0.9-0.1l1.1,0l1.2,0l1,0.1l0.1,0l0-0.1l-0.1-0.8l0-0.8l0-0.7l0-0.7v-6.9h3.2l1,0
	l1.1,0l1.7,0.1h0.1l0-0.1l-0.1-0.5l0-0.5l0.2-1l0-0.1H-15l-2.1,0.1c-0.7,0-1.7,0-2.9,0H-22v-6.9l1.9,0l1.7,0l0.1,0l1.8,0.1l2,0.1
	h0.1l0-0.1l-0.1-0.6l0-0.4l0.1-0.5l0-0.3L-14.4,337.3L-14.4,337.3z"/>
</svg>
