<?xml version="1.0" encoding="utf-8"?>
<!-- Generator: Adobe Illustrator 19.0.0, SVG Export Plug-In . SVG Version: 6.00 Build 0)  -->
<svg version="1.1" baseProfile="tiny" id="Layer_1" xmlns="http://www.w3.org/2000/svg" xmlns:xlink="http://www.w3.org/1999/xlink"
	 x="0px" y="0px" viewBox="0 0 487 84" xml:space="preserve">
<g>
	<path fill="#1A1818" d="M36.2,39c-1.6-0.8-3.2-1.6-4.8-2.4c-4.9-2.4-9.2-4.8-8.3-9.8c1.2-6.2,5.5-7.5,8.7-7.5
		c2.8,0,6.2,1.5,8.4,2.6c1.4,0.7,2.3,1.3,2.3,1.3l1.6-7.9c0,0-3.1-2.2-6.1-3c-3-0.9-15.5-3.2-21.6,8c-6.7,12.2,2.6,19.9,10.2,24
		c0.1,0,0.1,0.1,0.2,0.1c6.2,3.3,13.9,6.2,12.7,12.8c-1.1,6.2-6.7,7.3-9.9,7.3c-4.5,0-12.2-4.4-12.2-4.4l-2.7,8.4c0,0,2.9,2.1,5.9,3
		c3,0.9,18.3,3.4,24.5-7.8C51.7,51.5,43.8,43.1,36.2,39z"/>
	<polygon fill="#1A1818" points="83.8,21.7 110.4,21.7 110.4,13.2 74.9,13.2 74.9,70.9 110.4,70.9 110.4,62.4 83.8,62.4 83.8,45 
		102.5,45 102.5,36.5 83.8,36.5 	"/>
	<g>
		<path fill="#1A1818" d="M157,13.2h-14.6v57.7h8.3V47.1h13.1c0,0,15.8,0.1,15.8-17.6C179.6,12.3,157,13.2,157,13.2z M164.3,41
			h-13.6V19.9h9.4c0,0,12.3-0.1,12.3,10.6C172.5,39.5,164.3,41,164.3,41z"/>
	</g>
	<polygon fill="#1A1818" points="243.4,35.8 213.6,35.8 213.6,13.2 204.7,13.2 204.7,70.9 213.6,70.9 213.6,44.3 243.4,44.3 
		243.4,70.9 252.3,70.9 252.3,13 243.4,13 	"/>
	<g>
		<path fill="#1A1818" d="M307.2,12.5c-16.4,0-29.7,13.3-29.7,29.7c0,16.4,13.3,29.7,29.7,29.7c16.4,0,29.7-13.3,29.7-29.7
			C336.9,25.8,323.6,12.5,307.2,12.5z M307.2,63.3c-11.6,0-21.1-9.4-21.1-21.1c0-11.6,9.5-21.1,21.1-21.1c11.6,0,21.1,9.4,21.1,21.1
			C328.3,53.9,318.8,63.3,307.2,63.3z"/>
	</g>
	<g>
		<path id="XMLID_36_" fill="#1A1818" d="M388.7,44.7c0,0,10.3-2.4,10.3-15.8c0-17.1-19.4-15.8-19.4-15.8h-16.7v57.7h8.3V45.7h8.8
			l17.8,25.1h9.7L388.7,44.7z M371.1,39.6V19.9h9.4c0,0,11.2-0.1,11.2,10.6c0,7.5-7.3,9.1-7.3,9.1H371.1z"/>
	</g>
	<g>
		<path fill="#1A1818" d="M456.4,13h-7.6l-20.4,57.9h7.6l4.9-14h23.3l5.1,14h7.6L456.4,13z M442.4,52.2l8.3-28.4h2l10.1,28.4H442.4z
			"/>
	</g>
</g>
</svg>
